<?xml version="1.0" encoding="utf-8"?>
<!-- Generator: Adobe Illustrator 23.0.1, SVG Export Plug-In . SVG Version: 6.00 Build 0)  -->
<svg version="1.1" id="Слой_1" xmlns="http://www.w3.org/2000/svg" xmlns:xlink="http://www.w3.org/1999/xlink" x="0px" y="0px"
	 viewBox="0 0 226.6 233.8" style="enable-background:new 0 0 226.6 233.8;" xml:space="preserve">
<g>
	<path d="M106.4,33.9V19.5h-5.2v-1.9c0.7,0,1.3-0.1,1.9-0.2c0.6-0.1,1.2-0.3,1.8-0.6c0.5-0.3,1-0.7,1.3-1.1c0.4-0.5,0.6-1.1,0.7-1.9
		h1.9v20H106.4z M114,18.1c0.3-0.9,0.7-1.6,1.2-2.2c0.5-0.6,1.2-1.1,2.1-1.5c0.8-0.4,1.8-0.5,2.8-0.5c0.9,0,1.7,0.1,2.5,0.4
		c0.8,0.3,1.4,0.6,2,1.1c0.5,0.4,1,1.1,1.3,1.8s0.5,1.5,0.5,2.5c0,0.9-0.2,1.7-0.4,2.4s-0.6,1.3-1.1,1.9c-0.4,0.5-1,1.1-1.6,1.4
		c-0.6,0.4-1.1,0.9-1.8,1.2c-0.6,0.4-1.2,0.7-1.9,1.1c-0.6,0.4-1.1,0.8-1.7,1.1c-0.5,0.4-1,0.9-1.3,1.3c-0.4,0.4-0.6,1.1-0.7,1.7
		h10.2v2.1h-13c0.1-1.1,0.3-2.2,0.6-3s0.7-1.6,1.2-2.2c0.5-0.6,1.1-1.1,1.8-1.7c0.6-0.4,1.3-0.9,2-1.3c0.9-0.5,1.6-1,2.2-1.4
		c0.6-0.4,1.1-0.9,1.6-1.3s0.7-1,1-1.5c0.3-0.5,0.4-1.1,0.4-1.9c0-0.5-0.1-1.1-0.4-1.5c-0.2-0.4-0.4-0.8-0.8-1.1s-0.8-0.5-1.2-0.7
		c-0.4-0.2-1-0.3-1.5-0.3c-0.7,0-1.3,0.2-1.8,0.4c-0.5,0.3-0.9,0.7-1.2,1.1c-0.4,0.4-0.5,1-0.7,1.6s-0.2,1.1-0.2,1.8h-2.4
		C113.6,19.9,113.7,19,114,18.1z M160.2,47.5V33.2H155v-1.9c0.7,0,1.3-0.1,1.9-0.2s1.2-0.3,1.8-0.6c0.5-0.3,1-0.7,1.3-1.1
		c0.4-0.5,0.6-1.1,0.7-1.9h1.9v20L160.2,47.5L160.2,47.5z M188.7,66c0.3-0.9,0.7-1.6,1.2-2.2s1.2-1.1,2.1-1.5
		c0.8-0.4,1.8-0.5,2.8-0.5c0.9,0,1.7,0.1,2.5,0.4s1.4,0.6,2,1.1c0.5,0.4,1,1.1,1.3,1.8s0.5,1.5,0.5,2.5c0,0.9-0.2,1.7-0.4,2.4
		c-0.3,0.7-0.6,1.3-1.1,1.9c-0.4,0.5-1,1.1-1.6,1.4c-0.6,0.4-1.1,0.9-1.8,1.2s-1.2,0.7-1.9,1.1c-0.6,0.4-1.1,0.8-1.7,1.1
		c-0.5,0.4-1,0.9-1.3,1.3c-0.4,0.4-0.6,1.1-0.7,1.7h10.2v2.1h-13.1c0.1-1.1,0.3-2.2,0.6-3c0.4-0.8,0.7-1.6,1.2-2.2
		c0.5-0.6,1.1-1.1,1.8-1.7c0.6-0.4,1.3-0.9,2-1.3c0.9-0.5,1.6-1,2.2-1.4c0.6-0.4,1.1-0.9,1.6-1.3s0.7-1,1-1.5s0.4-1.1,0.4-1.9
		c0-0.5-0.1-1.1-0.4-1.5c-0.2-0.4-0.4-0.8-0.8-1.1s-0.8-0.5-1.2-0.7c-0.4-0.2-1-0.3-1.5-0.3c-0.7,0-1.3,0.2-1.8,0.4
		c-0.5,0.3-0.9,0.7-1.2,1.1c-0.4,0.4-0.5,1-0.7,1.6s-0.2,1.1-0.2,1.8h-2.4C188.4,67.8,188.5,66.9,188.7,66L188.7,66z M205.2,115.3
		h0.8c0.5,0,1-0.1,1.4-0.2s0.9-0.4,1.2-0.6c0.4-0.3,0.6-0.6,0.8-1.1s0.4-0.9,0.4-1.4c0-1.1-0.4-1.9-1.1-2.4
		c-0.7-0.5-1.5-0.8-2.6-0.8c-0.6,0-1.2,0.1-1.7,0.4c-0.4,0.3-0.9,0.5-1.1,1c-0.4,0.4-0.5,0.9-0.7,1.4c-0.2,0.5-0.3,1.1-0.3,1.7H200
		c0-1,0.2-1.9,0.4-2.6c0.3-0.8,0.7-1.5,1.1-2c0.5-0.5,1.1-1,1.9-1.3c0.8-0.4,1.7-0.4,2.6-0.4c0.9,0,1.7,0.1,2.4,0.4
		c0.7,0.3,1.4,0.5,1.9,1c0.5,0.4,1,1,1.3,1.7c0.4,0.7,0.4,1.5,0.4,2.4s-0.3,1.7-0.8,2.4c-0.5,0.7-1.1,1.2-1.9,1.6v0.1
		c1.2,0.3,2.1,0.9,2.7,1.8c0.6,0.9,0.9,1.9,0.9,3.2c0,1-0.2,1.9-0.5,2.6c-0.4,0.8-0.9,1.4-1.5,1.9c-0.6,0.5-1.3,0.9-2.2,1.1
		c-0.9,0.3-1.8,0.4-2.6,0.4c-1.1,0-1.9-0.2-2.7-0.4c-0.8-0.3-1.5-0.7-2.1-1.2c-0.6-0.5-1.1-1.2-1.3-2c-0.4-0.8-0.4-1.8-0.4-2.7h2.4
		c0,1.3,0.4,2.4,1.1,3.2s1.8,1.2,3.2,1.2c0.6,0,1.1-0.1,1.7-0.3c0.5-0.2,1-0.4,1.4-0.8c0.4-0.4,0.7-0.7,1-1.2
		c0.3-0.5,0.4-1.1,0.4-1.6c0-0.6-0.1-1.1-0.4-1.7c-0.3-0.5-0.5-0.9-0.9-1.2s-0.8-0.6-1.3-0.7s-1.1-0.3-1.7-0.3c-0.5,0-1,0-1.4,0.1
		L205.2,115.3C205,115.3,205.1,115.3,205.2,115.3L205.2,115.3z M202.2,167v2.1h-2.7v4.7h-2.3v-4.7h-8.8v-2.3l9.1-13h1.9V167
		L202.2,167L202.2,167z M197.3,157.3l-6.7,9.8h6.7V157.3z M157.7,189.6l-1.1,5.7l0.1,0.1c0.4-0.5,1-0.9,1.7-1.1
		c0.7-0.3,1.4-0.4,2-0.4c0.9,0,1.8,0.2,2.5,0.4c0.8,0.3,1.5,0.7,2,1.3c0.6,0.6,1.1,1.3,1.4,2.1c0.4,0.8,0.5,1.9,0.5,3
		c0,0.9-0.2,1.7-0.4,2.5c-0.3,0.8-0.7,1.5-1.3,2.1c-0.6,0.6-1.3,1.1-2.2,1.5c-0.9,0.4-1.9,0.5-3.1,0.5c-0.9,0-1.7-0.1-2.5-0.4
		c-0.8-0.3-1.4-0.6-2-1.1c-0.6-0.4-1.1-1.1-1.4-1.8s-0.5-1.5-0.5-2.5h2.4c0,0.5,0.2,1,0.4,1.4c0.2,0.4,0.5,0.8,0.9,1.1
		s0.8,0.6,1.3,0.8s1.1,0.3,1.7,0.3c0.5,0,1.1-0.1,1.6-0.3c0.5-0.2,1-0.5,1.3-0.9s0.7-0.9,0.9-1.5c0.3-0.6,0.4-1.3,0.4-2.1
		c0-0.6-0.1-1.2-0.4-1.9c-0.3-0.6-0.5-1.1-0.9-1.4s-0.9-0.7-1.4-1c-0.5-0.3-1.1-0.4-1.9-0.4c-0.8,0-1.5,0.2-2.1,0.5
		c-0.6,0.4-1.1,0.8-1.6,1.4l-2-0.1l1.9-10.4h9.9v2.1L157.7,189.6L157.7,189.6z M116,202.6c-0.6-0.5-1.3-0.8-2.3-0.8
		c-1.1,0-1.9,0.3-2.5,0.7c-0.6,0.4-1.1,1.1-1.4,1.9c-0.3,0.7-0.6,1.6-0.7,2.5c-0.1,0.9-0.2,1.7-0.3,2.5l0.1,0.1
		c0.5-0.9,1.2-1.6,2.1-2c0.8-0.4,1.8-0.6,2.9-0.6c1,0,1.9,0.2,2.6,0.5c0.8,0.4,1.4,0.8,1.9,1.4c0.5,0.6,0.9,1.2,1.2,2
		c0.3,0.8,0.4,1.7,0.4,2.6c0,0.7-0.1,1.5-0.4,2.3c-0.3,0.8-0.6,1.5-1.1,2.1c-0.5,0.6-1.2,1.1-2,1.6c-0.9,0.4-1.9,0.6-3.2,0.6
		c-1.5,0-2.6-0.3-3.6-0.9c-1-0.6-1.6-1.4-2.1-2.3c-0.5-1-0.8-1.9-1-3.1c-0.2-1.1-0.3-2.2-0.3-3.3c0-1.4,0.1-2.7,0.4-4
		c0.3-1.3,0.6-2.5,1.2-3.4c0.5-1,1.3-1.8,2.3-2.4c1-0.6,2.1-0.9,3.5-0.9c1.7,0,3,0.4,4,1.3s1.5,2.1,1.7,3.8h-2.4
		C117,203.8,116.6,203.1,116,202.6L116,202.6z M111.7,209.2c-0.5,0.3-1,0.5-1.3,1c-0.4,0.4-0.6,0.9-0.8,1.4s-0.3,1.1-0.3,1.8
		s0.1,1.2,0.3,1.8c0.2,0.5,0.4,1.1,0.8,1.4c0.4,0.4,0.8,0.7,1.3,1c0.5,0.3,1.1,0.4,1.8,0.4c0.6,0,1.2-0.1,1.8-0.4
		c0.5-0.3,0.9-0.5,1.2-1c0.4-0.4,0.6-0.9,0.8-1.4s0.3-1.1,0.3-1.7s-0.1-1.2-0.3-1.8c-0.2-0.5-0.4-1.1-0.7-1.4
		c-0.4-0.4-0.8-0.7-1.2-1c-0.4-0.3-1.1-0.4-1.8-0.4C112.8,208.8,112.2,209,111.7,209.2L111.7,209.2z M70.6,193.1
		c-0.9,1.4-1.7,2.8-2.4,4.4c-0.7,1.6-1.2,3.2-1.7,4.8c-0.4,1.7-0.7,3.3-0.8,4.8h-2.6c0.1-1.7,0.4-3.3,0.8-4.9c0.4-1.6,1-3.2,1.7-4.6
		c0.7-1.4,1.5-2.9,2.4-4.2c0.9-1.3,1.9-2.6,2.9-3.6H60.6v-2.4h13v2C72.5,190.6,71.5,191.7,70.6,193.1L70.6,193.1z M26.8,156.7
		c0.4-0.6,0.8-1.1,1.3-1.6c0.5-0.4,1.1-0.8,1.9-1c0.7-0.3,1.4-0.4,2.2-0.4c1.1,0,2,0.2,2.8,0.4s1.4,0.7,1.9,1.1s0.8,1.1,1.1,1.7
		c0.3,0.6,0.4,1.2,0.4,1.9c0,0.9-0.3,1.8-0.7,2.5c-0.4,0.7-1.1,1.3-2,1.7c1.2,0.4,2.1,1,2.6,1.9c0.5,0.9,0.9,1.9,0.9,3.2
		c0,1-0.2,1.9-0.5,2.6c-0.4,0.8-0.8,1.4-1.4,1.9s-1.3,0.9-2.1,1.1c-0.8,0.3-1.7,0.4-2.6,0.4c-1,0-1.9-0.1-2.6-0.4s-1.6-0.6-2.1-1.1
		s-1.1-1.1-1.4-1.9c-0.4-0.8-0.5-1.7-0.5-2.6c0-1.1,0.3-2.2,0.9-3.1c0.6-0.9,1.5-1.5,2.6-1.9c-0.9-0.4-1.5-0.9-2-1.7
		c-0.5-0.8-0.8-1.6-0.8-2.5C26.3,158.1,26.5,157.4,26.8,156.7L26.8,156.7z M29.4,171c0.8,0.7,1.9,1.1,3.1,1.1c0.6,0,1.1-0.1,1.7-0.3
		c0.5-0.2,1-0.4,1.3-0.8c0.4-0.4,0.6-0.8,0.9-1.2c0.3-0.4,0.3-1,0.3-1.6c0-0.5-0.1-1.1-0.4-1.5c-0.3-0.4-0.5-0.9-0.9-1.2
		c-0.4-0.4-0.8-0.6-1.3-0.8c-0.5-0.2-1.1-0.3-1.6-0.3c-0.6,0-1.1,0.1-1.7,0.3s-1,0.4-1.3,0.8c-0.4,0.4-0.7,0.7-0.9,1.2
		c-0.2,0.4-0.4,1-0.4,1.6C28.1,169.3,28.5,170.3,29.4,171L29.4,171z M29.1,160.4c0.2,0.4,0.4,0.7,0.8,1c0.4,0.3,0.7,0.4,1.1,0.6
		c0.4,0.1,0.9,0.2,1.4,0.2c1,0,1.8-0.3,2.4-0.9c0.6-0.5,1-1.3,1-2.4c0-1.1-0.4-1.8-1-2.3c-0.6-0.5-1.4-0.8-2.4-0.8
		c-0.4,0-0.9,0.1-1.3,0.2s-0.8,0.4-1.1,0.6c-0.4,0.3-0.5,0.6-0.7,1c-0.2,0.4-0.3,0.8-0.3,1.3C28.8,159.6,28.9,160,29.1,160.4z
		 M17.4,124.1c0.7,0.5,1.5,0.8,2.5,0.8c1.5,0,2.6-0.6,3.3-1.9s1.1-3.2,1.2-5.8l-0.1-0.1c-0.4,0.9-1.1,1.5-1.9,2
		c-0.8,0.5-1.8,0.7-2.7,0.7c-1.1,0-1.9-0.2-2.7-0.5c-0.8-0.4-1.4-0.8-2-1.4c-0.5-0.6-1-1.3-1.2-2.1s-0.4-1.8-0.4-2.7
		c0-1,0.2-1.9,0.4-2.6c0.4-0.8,0.8-1.5,1.3-2c0.6-0.6,1.3-1.1,2.1-1.3c0.8-0.4,1.7-0.4,2.6-0.4c1,0,1.9,0.2,2.6,0.4
		c0.8,0.3,1.6,0.8,2.2,1.5c0.6,0.7,1.1,1.7,1.5,2.9c0.4,1.2,0.5,2.8,0.5,4.7c0,3.4-0.5,6.1-1.7,7.9c-1.1,1.9-2.8,2.8-5.3,2.8
		c-1.7,0-3.1-0.4-4.1-1.2c-1.1-0.8-1.8-2.1-1.9-3.9H16C16.3,122.8,16.8,123.6,17.4,124.1z M23.7,111.6c-0.2-0.5-0.4-1.1-0.8-1.4
		c-0.4-0.4-0.8-0.8-1.3-1c-0.5-0.3-1.1-0.4-1.8-0.4s-1.3,0.1-1.9,0.4c-0.5,0.3-0.9,0.6-1.2,1.1c-0.4,0.4-0.5,1-0.7,1.5
		c-0.2,0.5-0.2,1.1-0.2,1.8c0,0.5,0.1,1.1,0.3,1.6c0.2,0.5,0.4,1,0.8,1.3c0.4,0.4,0.8,0.7,1.2,1c0.4,0.3,1,0.4,1.6,0.4
		s1.1-0.1,1.7-0.4s1-0.5,1.3-1s0.6-0.9,0.8-1.4c0.2-0.5,0.3-1.1,0.3-1.7C24,112.8,23.9,112.1,23.7,111.6z M25.4,80.8V66.6h-5.1v-1.9
		c0.7,0,1.3-0.1,1.9-0.2c0.6-0.1,1.2-0.3,1.8-0.6c0.5-0.3,1-0.7,1.3-1.1c0.4-0.5,0.6-1.1,0.7-1.9h1.9v20
		C27.9,80.8,25.4,80.8,25.4,80.8z M32.7,68.8c0-0.8,0.1-1.6,0.3-2.3c0.2-0.8,0.4-1.5,0.6-2.1c0.3-0.7,0.7-1.2,1.1-1.8
		c0.5-0.5,1.1-0.9,1.9-1.2c0.7-0.4,1.7-0.4,2.6-0.4c1.1,0,1.9,0.2,2.6,0.4c0.7,0.3,1.3,0.7,1.9,1.2s0.9,1.1,1.1,1.8
		c0.3,0.7,0.5,1.4,0.6,2.1c0.2,0.8,0.3,1.5,0.3,2.3c0,0.8,0.1,1.6,0.1,2.3c0,0.7,0,1.5-0.1,2.3c-0.1,0.8-0.1,1.6-0.3,2.3
		c-0.2,0.8-0.4,1.5-0.6,2.1c-0.3,0.6-0.7,1.2-1.1,1.8c-0.5,0.5-1.1,0.9-1.9,1.2c-0.8,0.4-1.6,0.4-2.6,0.4s-1.9-0.2-2.6-0.4
		c-0.7-0.3-1.3-0.7-1.9-1.2c-0.5-0.5-0.9-1.1-1.1-1.8c-0.3-0.7-0.5-1.4-0.6-2.1c-0.2-0.8-0.3-1.5-0.3-2.3c0-0.8-0.1-1.6-0.1-2.3
		C32.7,70.4,32.7,69.6,32.7,68.8z M35.3,73.5c0.1,1,0.2,1.8,0.4,2.6c0.3,0.8,0.7,1.5,1.2,2.1c0.5,0.6,1.3,0.9,2.4,0.9
		c1.1,0,1.8-0.3,2.4-0.9c0.6-0.6,1-1.2,1.2-2.1c0.3-0.8,0.4-1.7,0.4-2.6c0.1-1,0.1-1.8,0.1-2.6v-1.6c0-0.6-0.1-1.1-0.2-1.8
		c-0.1-0.6-0.2-1.1-0.4-1.8c-0.2-0.5-0.4-1.1-0.7-1.5c-0.4-0.4-0.7-0.8-1.1-1.1c-0.4-0.3-1.1-0.4-1.8-0.4s-1.2,0.1-1.8,0.4
		c-0.4,0.3-0.9,0.6-1.1,1.1c-0.4,0.4-0.5,0.9-0.7,1.5c-0.2,0.5-0.3,1.1-0.4,1.8s-0.1,1.1-0.2,1.8V71C35.3,71.8,35.3,72.6,35.3,73.5z
		"/>
	<g>
		<path d="M60.6,47.5V33.2h-5.2v-1.9c0.7,0,1.3-0.1,1.9-0.2s1.2-0.3,1.8-0.6c0.5-0.3,1-0.7,1.3-1.1c0.4-0.5,0.6-1.1,0.7-1.9H63v20
			L60.6,47.5L60.6,47.5z M74.3,47.5V33.2h-5.2v-1.9c0.7,0,1.3-0.1,1.9-0.2c0.6-0.1,1.2-0.3,1.8-0.6c0.5-0.3,1-0.7,1.3-1.1
			c0.4-0.5,0.6-1.1,0.7-1.9h1.9v20L74.3,47.5L74.3,47.5z"/>
	</g>
</g>
</svg>
